# Blender v2.79 (sub 0) OBJ File: 'TestCube.blend'

# www.blender.org

mtllib TestCube.mtl

o Cube
v 1.000000 -1.000000 -1.000000
v 1.000000 -1.000000 1.000000
v -1.000000 -1.000000 1.000000
v -1.000000 -1.000000 -1.000000
v 1.000000 1.000000 -0.999999
v 0.999999 1.000000 1.000001
v -1.000000 1.000000 1.000000
v -1.000000 1.000000 -1.000000
vt 1.000000 1.000000
vt -0.000000 0.000000
vt 1.000000 -0.000000
vt 0.000000 1.000000
vt 1.000000 -0.000000
vt 1.000000 1.000000
vt -0.000000 0.000000
vt 1.000000 1.000000
vt -0.000000 0.000000
vt 1.000000 -0.000000
vt 1.000000 -0.000000
vt 0.000000 0.000000
vt 1.000000 1.000000
vt 0.000000 1.000000
vt 0.000000 1.000000
vt -0.000000 0.000000
vt 0.000000 1.000000
vt 0.000000 1.000000
vt 1.000000 1.000000
vt 1.000000 0.000000
vn 0.0000 -1.0000 0.0000
vn 0.0000 1.0000 0.0000
vn 1.0000 -0.0000 0.0000
vn 0.0000 -0.0000 1.0000
vn -1.0000 -0.0000 -0.0000
vn 0.0000 0.0000 -1.0000

usemtl CubeMaterial

s off

f 2/1/1 4/2/1 1/3/1
f 8/4/2 6/5/2 5/6/2
f 5/6/3 2/7/3 1/3/3
f 6/8/4 3/9/4 2/10/4
f 3/11/5 8/4/5 4/2/5
f 1/12/6 8/13/6 5/14/6
f 2/1/1 3/15/1 4/2/1
f 8/4/2 7/16/2 6/5/2
f 5/6/3 6/17/3 2/7/3
f 6/8/4 7/18/4 3/9/4
f 3/11/5 7/19/5 8/4/5
f 1/12/6 4/20/6 8/13/6
