# Blender v2.77 (sub 0) OBJ File: 'DoorFrame.blend'
# www.blender.org
mtllib DoorFrame.mtl
o Cube
v -0.900000 -0.000000 0.480000
v -0.900000 4.200000 0.480000
v -0.900000 -0.000000 0.000000
v -0.900000 4.200000 0.000000
v 0.900000 -0.000000 0.480000
v 0.900000 4.200000 0.480000
v 0.900000 -0.000000 0.000000
v 0.900000 4.200000 0.000000
v -1.100000 -0.200000 0.480000
v -1.100000 4.400000 0.480000
v -1.100000 4.400000 0.000000
v -1.100000 -0.200000 0.000000
v 1.100000 -0.200000 0.000000
v 1.100000 4.400000 0.000000
v 1.100000 4.400000 0.480000
v 1.100000 -0.200000 0.480000
vt 0.6962 0.7188
vt 0.6962 0.0000
vt 0.7722 0.0000
vt 0.7722 0.7187
vt 0.8481 0.0000
vt 0.9241 0.0000
vt 0.9241 0.6562
vt 0.8481 0.6562
vt 0.8481 0.0000
vt 0.8481 0.7188
vt 0.7722 0.7188
vt 0.7722 0.0000
vt 0.0759 1.0000
vt 0.0000 1.0000
vt 0.0000 0.7188
vt 0.0759 0.7188
vt 0.8481 1.0000
vt 0.8481 0.6562
vt 0.9241 0.6562
vt 0.9241 1.0000
vt 1.0000 0.6562
vt 1.0000 1.0000
vt 0.9241 1.0000
vt 0.9241 0.6562
vt 0.6646 0.6875
vt 0.6646 0.0312
vt 0.6962 0.7187
vt 0.0316 0.0312
vt 0.0316 0.6875
vt 0.0000 0.7188
vt 0.0000 0.0000
vt 0.3165 0.6875
vt 0.3481 0.7187
vt 0.3165 0.0312
vt 0.3481 0.0000
vt 0.3797 0.0312
vt 0.3797 0.6875
vt 0.3481 0.7188
vt 0.3481 0.0000
vt 0.0759 0.7188
vt 0.1519 0.7188
vt 0.1519 1.0000
vt 0.0759 1.0000
vt 0.9241 0.0000
vt 1.0000 0.0000
vt 1.0000 0.6562
vt 0.9241 0.6562
vn -1.0000 0.0000 0.0000
vn 1.0000 0.0000 0.0000
vn 0.0000 -1.0000 0.0000
vn 0.0000 1.0000 0.0000
vn -0.0000 0.0000 1.0000
vn 0.0000 0.0000 -1.0000
usemtl None
s off
f 9/1/1 10/2/1 11/3/1 12/4/1
f 6/5/1 8/6/1 7/7/1 5/8/1
f 13/9/2 14/10/2 15/11/2 16/12/2
f 2/13/3 4/14/3 8/15/3 6/16/3
f 12/17/3 13/18/3 16/19/3 9/20/3
f 14/21/4 11/22/4 10/23/4 15/24/4
f 1/25/5 2/26/5 10/2/5 9/27/5
f 4/28/6 3/29/6 12/30/6 11/31/6
f 3/29/6 7/32/6 13/33/6 12/30/6
f 8/34/6 4/28/6 11/31/6 14/35/6
f 7/32/6 8/34/6 14/35/6 13/33/6
f 6/36/5 5/37/5 16/38/5 15/39/5
f 5/37/5 1/25/5 9/27/5 16/38/5
f 2/26/5 6/36/5 15/39/5 10/2/5
f 5/40/4 7/41/4 3/42/4 1/43/4
f 1/44/2 3/45/2 4/46/2 2/47/2
