# Blender v2.79 (sub 0) OBJ File: 'Portal2.blend'
# www.blender.org
mtllib Frame.mtl
o Cube_Frame
v -1.800000 0.000000 1.000000
v -1.800000 4.200000 1.000000
v -1.800000 0.000000 -1.000000
v -1.800000 4.200000 -1.000000
v 1.800000 0.000000 1.000000
v 1.800000 4.200000 1.000000
v 1.800000 0.000000 -1.000000
v 1.800000 4.200000 -1.000000
v -2.000000 -0.200000 1.000000
v -2.000000 4.400000 1.000000
v -2.000000 4.400000 -1.000000
v -2.000000 -0.200000 -1.000000
v 2.000000 -0.200000 -1.000000
v 2.000000 4.400000 -1.000000
v 2.000000 4.400000 1.000000
v 2.000000 -0.200000 1.000000
vt -0.538958 1.331274
vt -1.156876 -0.089938
vt -0.538958 -0.089938
vt 0.700778 1.207687
vt 1.318697 -0.089941
vt 1.318697 1.207687
vt 0.698834 1.331271
vt 0.080916 -0.089941
vt 0.698834 -0.089941
vt 0.075139 2.000607
vt -1.037115 1.382689
vt 0.075138 1.382689
vt -1.131630 2.670209
vt 0.104207 2.052290
vt 0.104207 2.670208
vt 1.340044 2.052290
vt 0.104207 2.670209
vt 0.104207 2.052290
vt -1.095077 -0.153673
vt -1.156876 -1.513088
vt -1.095083 -1.451296
vt 1.254968 -1.451302
vt 1.316760 -0.091885
vt 1.254968 -0.153677
vt 0.142709 -1.451299
vt 1.316760 -1.513093
vt 0.080921 -0.091886
vt 0.142712 -0.153677
vt 0.080916 -1.513091
vt 0.017176 -1.451301
vt 0.078971 -0.091886
vt 0.017179 -0.153677
vt 0.078968 -1.513093
vt -1.156868 -0.091882
vt 0.075138 1.413939
vt 1.187391 2.031857
vt 0.075139 2.031857
vt 1.936623 -1.513093
vt 1.318704 -0.215465
vt 1.318704 -1.513093
vt -1.156876 1.331274
vt 0.700779 -0.089941
vt 0.080916 1.331271
vt -1.037115 2.000607
vt -1.131630 2.052290
vt 1.340044 2.670209
vt 1.187391 1.413939
vt 1.936623 -0.215465
vn -1.0000 0.0000 0.0000
vn 1.0000 0.0000 0.0000
vn 0.0000 -1.0000 0.0000
vn 0.0000 1.0000 0.0000
vn 0.0000 0.0000 1.0000
vn 0.0000 0.0000 -1.0000
usemtl Material
s off
f 10/1/1 12/2/1 9/3/1
f 8/4/1 5/5/1 6/6/1
f 14/7/2 16/8/2 13/9/2
f 4/10/3 6/11/3 2/12/3
f 13/13/3 9/14/3 12/15/3
f 11/16/4 15/17/4 14/18/4
f 2/19/5 9/20/5 1/21/5
f 3/22/6 11/23/6 4/24/6
f 7/25/6 12/26/6 3/22/6
f 4/24/6 14/27/6 8/28/6
f 8/28/6 13/29/6 7/25/6
f 5/30/5 15/31/5 6/32/5
f 1/21/5 16/33/5 5/30/5
f 6/32/5 10/34/5 2/19/5
f 7/35/4 1/36/4 5/37/4
f 3/38/2 2/39/2 1/40/2
f 10/1/1 11/41/1 12/2/1
f 8/4/1 7/42/1 5/5/1
f 14/7/2 15/43/2 16/8/2
f 4/10/3 8/44/3 6/11/3
f 13/13/3 16/45/3 9/14/3
f 11/16/4 10/46/4 15/17/4
f 2/19/5 10/34/5 9/20/5
f 3/22/6 12/26/6 11/23/6
f 7/25/6 13/29/6 12/26/6
f 4/24/6 11/23/6 14/27/6
f 8/28/6 14/27/6 13/29/6
f 5/30/5 16/33/5 15/31/5
f 1/21/5 9/20/5 16/33/5
f 6/32/5 15/31/5 10/34/5
f 7/35/4 3/47/4 1/36/4
f 3/38/2 4/48/2 2/39/2
