# Blender v2.79 (sub 0) OBJ File: 'Portal2.blend'
# www.blender.org
mtllib Room1.mtl
o Cube.002_Room1
v -1.800000 0.001930 -1.000000
v -1.800000 4.201931 -1.000000
v -1.800000 0.001930 -1.500000
v -1.800000 4.201931 -1.500000
v 1.800000 0.001930 -1.000000
v 1.800000 4.201931 -1.000000
v 1.800000 0.001930 -1.500000
v 1.800000 4.201931 -1.500000
v 1.800000 0.001930 -13.500000
v -9.000000 0.001930 -1.500000
v -1.800000 4.701931 -1.500000
v 1.800000 4.701931 -1.500000
v -9.000000 4.701931 -1.500000
v 9.000000 0.001930 -13.500000
v 9.000000 4.701931 -1.500000
v 9.000000 4.701931 -13.500000
v -1.800000 4.701931 -13.500000
v 1.800000 4.701931 -13.500000
v 1.800000 0.001930 -14.000000
v 1.800000 4.201931 -14.000000
v 1.800000 4.201931 -13.500000
v -1.800000 0.001930 -14.000000
v -1.800000 4.201931 -14.000000
v -1.800000 0.001930 -13.500000
v -1.800000 4.201931 -13.500000
v 9.000000 4.201931 -13.500001
v -9.000000 0.001930 -13.499999
v -9.000000 4.201931 -13.499999
v -9.000000 4.701931 -13.499999
v -9.000000 4.201931 -1.500000
v 9.000000 4.201931 -1.500000
v 9.000000 0.001930 -1.500000
vt 8.098810 -3.428370
vt 7.932170 -2.028586
vt 7.932170 -3.428370
vt 6.898993 -3.428370
vt 8.098810 -3.261729
vt 6.898993 -3.261729
vt -5.899001 -1.839294
vt -7.098814 -2.005934
vt -5.899001 -2.005934
vt 6.898994 -2.028590
vt 7.065636 -3.428370
vt 7.065636 -2.028590
vt -7.098815 2.160081
vt -7.098814 -1.839294
vt 10.498440 -2.028586
vt 8.098810 -2.028586
vt 4.499372 -3.428369
vt 6.898993 -3.595011
vt 10.498440 -3.595012
vt 10.498440 -3.428370
vt 8.098810 -3.595011
vt -3.499376 2.160081
vt -5.899001 2.160081
vt -9.498440 -1.839294
vt 4.499370 -3.595010
vt 0.500004 -3.428368
vt 0.500005 -3.595010
vt -5.499069 -3.595008
vt -9.498440 -3.428370
vt -9.498438 -3.595011
vt 0.503119 3.973599
vt -3.496258 1.573973
vt 0.503119 1.573972
vt 0.503119 0.374159
vt -3.496258 -2.025466
vt 0.503119 -2.025466
vt -3.496258 0.374159
vt -1.899628 -3.428368
vt -2.066268 -2.028585
vt -2.066270 -3.428369
vt -3.099446 -3.428368
vt -1.899627 -3.261728
vt -3.099446 -3.261727
vt -5.899001 2.326722
vt -7.098815 2.326722
vt -3.099446 -2.028588
vt -2.932804 -3.428368
vt -2.932804 -2.028588
vt 0.500004 -2.028586
vt -1.899627 -2.028585
vt -5.499069 -3.428367
vt -3.099445 -3.595009
vt -1.899628 -3.595010
vt -9.498440 -2.028589
vt 4.499372 -2.028589
vt -3.499376 -1.839294
vt -9.498440 2.160081
vt -3.496257 3.973599
vt -5.499070 -2.028588
vn -1.0000 0.0000 0.0000
vn 0.0000 -1.0000 0.0000
vn 0.0000 1.0000 0.0000
vn 1.0000 0.0000 0.0000
vn 0.0000 0.0000 -1.0000
vn 0.0000 0.0000 1.0000
usemtl Material
s off
f 8/1/1 5/2/1 6/3/1
f 4/4/2 6/5/2 2/6/2
f 7/7/3 1/8/3 5/9/3
f 3/10/4 2/11/4 1/12/4
f 7/7/3 24/13/3 3/14/3
f 8/1/5 32/15/5 7/16/5
f 3/10/5 30/17/5 4/4/5
f 30/17/5 11/18/5 4/4/5
f 8/1/5 15/19/5 31/20/5
f 4/4/5 12/21/5 8/1/5
f 7/7/3 14/22/3 9/23/3
f 24/13/3 10/24/3 3/14/3
f 13/25/4 28/26/4 29/27/4
f 16/28/1 31/29/1 15/30/1
f 13/31/2 17/32/2 11/33/2
f 12/34/2 16/35/2 15/36/2
f 11/33/2 18/37/2 12/34/2
f 25/38/4 22/39/4 23/40/4
f 21/41/2 23/42/2 20/43/2
f 24/13/3 19/44/3 22/45/3
f 9/46/1 20/47/1 19/48/1
f 25/38/6 27/49/6 24/50/6
f 9/46/6 26/51/6 21/41/6
f 26/51/6 18/52/6 21/41/6
f 25/38/6 29/27/6 28/26/6
f 21/41/6 17/53/6 25/38/6
f 26/51/1 32/54/1 31/29/1
f 30/17/4 27/49/4 28/26/4
f 8/1/1 7/16/1 5/2/1
f 4/4/2 8/1/2 6/5/2
f 7/7/3 3/14/3 1/8/3
f 3/10/4 4/4/4 2/11/4
f 7/7/3 9/23/3 24/13/3
f 8/1/5 31/20/5 32/15/5
f 3/10/5 10/55/5 30/17/5
f 30/17/5 13/25/5 11/18/5
f 8/1/5 12/21/5 15/19/5
f 4/4/5 11/18/5 12/21/5
f 7/7/3 32/56/3 14/22/3
f 24/13/3 27/57/3 10/24/3
f 13/25/4 30/17/4 28/26/4
f 16/28/1 26/51/1 31/29/1
f 13/31/2 29/58/2 17/32/2
f 12/34/2 18/37/2 16/35/2
f 11/33/2 17/32/2 18/37/2
f 25/38/4 24/50/4 22/39/4
f 21/41/2 25/38/2 23/42/2
f 24/13/3 9/23/3 19/44/3
f 9/46/1 21/41/1 20/47/1
f 25/38/6 28/26/6 27/49/6
f 9/46/6 14/59/6 26/51/6
f 26/51/6 16/28/6 18/52/6
f 25/38/6 17/53/6 29/27/6
f 21/41/6 18/52/6 17/53/6
f 26/51/1 14/59/1 32/54/1
f 30/17/4 10/55/4 27/49/4
