# Blender v2.79 (sub 0) OBJ File: 'vehicle_platform.blend'
# www.blender.org
mtllib vehicle_platform_frame.mtl
o Cube.003_Cube
v -4.500000 -0.500000 4.500000
v -4.500000 0.500000 4.500000
v -4.500000 -0.500000 -4.500000
v -4.500000 0.500000 -4.500000
v 4.500000 -0.500000 4.500000
v 4.500000 0.500000 4.500000
v 4.500000 -0.500000 -4.500000
v 4.500000 0.500000 -4.500000
v -4.500000 -0.500000 -4.500000
v -4.500000 -0.500000 4.500000
v -3.500000 0.500000 3.500000
v -3.500000 0.500000 -3.500000
v 4.500000 -0.500000 -4.500000
v 3.500000 0.500000 -3.500000
v 4.500000 -0.500000 4.500000
v 3.500000 0.500000 3.500000
v -4.500000 0.500000 4.500000
v -4.500000 0.500000 -4.500000
v 4.500000 0.500000 -4.500000
v 4.500000 0.500000 4.500000
v -3.500000 0.500000 3.500000
v -3.500000 0.500000 -3.500000
v 3.500000 0.500000 -3.500000
v 3.500000 0.500000 3.500000
v -3.500000 0.500000 3.500000
v -3.500000 0.500000 -3.500000
v 3.500000 0.500000 -3.500000
v 3.500000 0.500000 3.500000
v -3.500000 -0.500000 3.500000
v -3.500000 -0.500000 -3.500000
v 3.500000 -0.500000 -3.500000
v 3.500000 -0.500000 3.500000
vt 0.902023 0.994129
vt 0.902023 0.520655
vt 0.990511 0.520655
vt 0.990511 0.994129
vt 0.990511 0.520655
vt 0.990511 0.994130
vt 0.902023 0.994130
vt 0.902023 0.520655
vt 0.902023 0.520655
vt 0.990511 0.520655
vt 0.990511 0.994130
vt 0.990511 0.994129
vt 0.902023 0.994129
vt 0.902023 0.520655
vt 0.115661 0.991543
vt 0.200684 0.906521
vt 0.795840 0.906521
vt 0.880862 0.991543
vt 0.990511 0.520655
vt 0.990511 0.994129
vt 0.902023 0.994129
vt 0.902023 0.520655
vt 0.990511 0.520655
vt 0.990511 0.994130
vt 0.902023 0.994130
vt 0.902023 0.520655
vt 0.990511 0.520655
vt 0.990511 0.994129
vt 0.902023 0.994130
vt 0.902023 0.520655
vt 0.990511 0.994129
vt 0.902023 0.520655
vt 0.115662 0.991543
vt 0.200684 0.906521
vt 0.795839 0.906521
vt 0.880862 0.991543
vt 0.902023 0.994130
vt 0.902023 0.994130
vt 0.902023 0.994130
vt 0.902023 0.994130
vt 0.200683 0.906521
vt 0.795839 0.906521
vt 0.880862 0.991543
vt 0.115661 0.991543
vt 0.200683 0.906521
vt 0.795839 0.906521
vt 0.880862 0.991543
vt 0.115661 0.991543
vt 0.200683 0.906521
vt 0.795839 0.906521
vt 0.880862 0.991543
vt 0.115661 0.991543
vt 0.200683 0.906521
vt 0.795839 0.906521
vt 0.880862 0.991543
vt 0.115661 0.991543
vt 0.902023 0.994130
vt 0.902023 0.994130
vt 0.902023 0.994130
vt 0.902023 0.994130
vt 0.902023 0.994130
vt 0.902023 0.994130
vt 0.013111 0.988809
vt 0.013111 0.634431
vt 0.098090 0.634431
vt 0.098090 0.988809
vt 0.902023 0.994130
vt 0.902023 0.994130
vt 0.013111 0.988809
vt 0.013111 0.634431
vt 0.098090 0.634431
vt 0.098090 0.988809
vt 0.013111 0.988809
vt 0.013111 0.634431
vt 0.098090 0.634431
vt 0.098090 0.988809
vt 0.013111 0.988809
vt 0.013111 0.634431
vt 0.098090 0.634431
vt 0.098090 0.988809
vt 0.115661 0.991543
vt 0.200684 0.906521
vt 0.795840 0.906521
vt 0.880862 0.991543
vt 0.115662 0.991543
vt 0.200684 0.906521
vt 0.795840 0.906521
vt 0.880862 0.991543
vn 1.0000 0.0000 0.0000
vn 0.0000 0.0000 1.0000
vn -1.0000 0.0000 0.0000
vn 0.0000 0.0000 -1.0000
vn 0.0000 -1.0000 0.0000
vn 0.0000 1.0000 0.0000
usemtl Material.004
s off
f 1/1/1 3/2/1 4/3/1 2/4/1
f 3/5/2 7/6/2 8/7/2 4/8/2
f 7/9/3 5/10/3 6/11/3 8/7/3
f 5/10/4 1/12/4 2/13/4 6/14/4
f 13/15/5 31/16/5 30/17/5 9/18/5
f 10/19/3 17/20/3 18/21/3 9/22/3
f 9/23/4 18/24/4 19/25/4 13/26/4
f 13/27/1 19/28/1 20/29/1 15/30/1
f 15/31/2 20/29/2 17/32/2 10/19/2
f 9/33/5 30/34/5 29/35/5 10/36/5
f 16/37/2 14/38/2 23/39/2 24/40/2
f 11/41/6 12/42/6 18/43/6 17/44/6
f 12/45/6 14/46/6 19/47/6 18/48/6
f 14/49/6 16/50/6 20/51/6 19/52/6
f 16/53/6 11/54/6 17/55/6 20/56/6
f 22/57/2 21/58/2 25/59/2 26/60/2
f 12/61/2 11/62/2 21/58/2 22/57/2
f 11/62/2 16/37/2 24/40/2 21/58/2
f 14/38/2 12/61/2 22/57/2 23/39/2
f 25/63/4 28/64/4 32/65/4 29/66/4
f 21/58/2 24/40/2 28/67/2 25/59/2
f 23/39/2 22/57/2 26/60/2 27/68/2
f 24/40/2 23/39/2 27/68/2 28/67/2
f 27/69/2 26/70/2 30/71/2 31/72/2
f 28/73/3 27/74/3 31/75/3 32/76/3
f 26/77/1 25/78/1 29/79/1 30/80/1
f 10/81/5 29/82/5 32/83/5 15/84/5
f 15/85/5 32/86/5 31/87/5 13/88/5
