# Blender v2.79 (sub 0) OBJ File: 'vehicle_platform.blend'
# www.blender.org
mtllib vehicle_platform_right.mtl
o Cube_Cube.003
v 0.000000 -0.500000 3.500000
v 0.000000 0.500000 3.500000
v 0.000000 -0.500000 -3.500000
v 0.000000 0.500000 -3.500000
v 3.500000 -0.500000 3.500000
v 3.500000 0.500000 3.500000
v 3.500000 -0.500000 -3.500000
v 3.500000 0.500000 -3.500000
v 0.000000 -0.500000 -1.540000
v 0.000000 0.500000 -1.540000
v 0.000000 -0.500000 1.540000
v 0.000000 0.500000 1.540000
v 0.490000 0.500000 -0.559999
v 0.490000 -0.500000 -0.559999
v 0.490000 -0.500000 0.560000
v 0.490000 0.500000 0.560000
v 0.000000 0.500000 -2.520000
v 0.000000 -0.500000 -2.520000
v 0.000000 -0.500000 2.520000
v 0.000000 0.500000 2.520000
v -0.875000 0.500000 -0.559999
v -0.875000 0.500000 -1.540000
v -0.875000 -0.500000 -1.540000
v -0.875000 -0.500000 0.560000
v -0.875000 -0.500000 1.540000
v -0.875000 0.500000 1.540000
v -0.875000 -0.500000 -0.559999
v -0.875000 0.500000 0.560000
vt 0.769090 0.126732
vt 0.769090 0.005829
vt 0.876096 0.005829
vt 0.876096 0.126732
vt 0.125123 0.500806
vt 0.001378 0.500806
vt 0.001378 0.125806
vt 0.125123 0.125806
vt 0.125794 0.125806
vt 0.125119 0.002741
vt 0.875119 0.002741
vt 0.875123 0.125806
vt 0.876096 0.126370
vt 0.998673 0.126370
vt 0.998673 0.502293
vt 0.876096 0.501370
vt 0.126097 0.501370
vt 0.126096 0.126371
vt 0.771097 0.501370
vt 0.666096 0.501370
vt 0.561096 0.448871
vt 0.441097 0.448871
vt 0.336097 0.501370
vt 0.231097 0.501370
vt 0.875123 0.125806
vt 0.875123 0.500806
vt 0.770123 0.500806
vt 0.665123 0.500806
vt 0.560123 0.448306
vt 0.440123 0.448306
vt 0.335123 0.500806
vt 0.230123 0.500806
vt 0.125123 0.500806
vt 0.125123 0.125806
vt 0.441097 0.595120
vt 0.336097 0.595120
vt 0.238115 0.126008
vt 0.238116 0.005105
vt 0.344139 0.005105
vt 0.344139 0.126008
vt 0.450162 0.126008
vt 0.450162 0.005105
vt 0.557043 0.005105
vt 0.557043 0.126008
vt 0.006261 0.123853
vt 0.006261 0.002949
vt 0.120392 0.002949
vt 0.120392 0.123853
vt 0.663067 0.126732
vt 0.663067 0.005829
vt 0.132092 0.126008
vt 0.132092 0.005105
vt 0.557043 0.126008
vt 0.557043 0.005829
vt 0.663067 0.005829
vt 0.663067 0.126008
vt 0.344139 0.125284
vt 0.344139 0.005105
vt 0.450162 0.005105
vt 0.450162 0.125284
vt 0.992951 0.003672
vt 0.992951 0.124575
vt 0.882223 0.124575
vt 0.882223 0.003672
vt 0.666096 0.595120
vt 0.561096 0.595120
vt 0.665123 0.594556
vt 0.560123 0.594556
vt 0.440123 0.594556
vt 0.335123 0.594556
vt 0.120392 0.002949
vt 0.120392 0.123853
vt 0.006261 0.123853
vt 0.006261 0.002949
vt 0.883024 0.125140
vt 0.883024 0.004237
vt 0.993752 0.004237
vt 0.993752 0.125140
vn -1.0000 0.0000 0.0000
vn 0.0000 0.0000 -1.0000
vn 1.0000 0.0000 0.0000
vn 0.0000 0.0000 1.0000
vn 0.0000 -1.0000 0.0000
vn 0.0000 1.0000 0.0000
usemtl Material.004
s off
f 18/1/1 17/2/1 4/3/1 3/4/1
f 3/5/2 4/6/2 8/7/2 7/8/2
f 7/9/3 8/10/3 6/11/3 5/12/3
f 5/13/4 6/14/4 2/15/4 1/16/4
f 3/17/5 7/18/5 5/13/5 1/16/5 19/19/5 11/20/5 15/21/5 14/22/5 9/23/5 18/24/5
f 8/25/6 4/26/6 17/27/6 10/28/6 13/29/6 16/30/6 12/31/6 20/32/6 2/33/6 6/34/6
f 9/23/5 14/22/5 27/35/5 23/36/5
f 19/37/1 20/38/1 12/39/1 11/40/1
f 15/41/1 16/42/1 13/43/1 14/44/1
f 16/45/2 15/46/2 24/47/2 28/48/2
f 9/49/1 10/50/1 17/2/1 18/1/1
f 1/51/1 2/52/1 20/38/1 19/37/1
f 27/53/1 21/54/1 22/55/1 23/56/1
f 25/57/1 26/58/1 28/59/1 24/60/1
f 11/61/4 12/62/4 26/63/4 25/64/4
f 15/21/5 11/20/5 25/65/5 24/66/5
f 13/29/6 10/28/6 22/67/6 21/68/6
f 12/31/6 16/30/6 28/69/6 26/70/6
f 14/71/4 13/72/4 21/73/4 27/74/4
f 10/75/2 9/76/2 23/77/2 22/78/2
