# Blender v2.79 (sub 0) OBJ File: 'vehicle_platform.blend'
# www.blender.org
mtllib vehicle_platform_full.mtl
o Cube_Cube.003
v 0.000000 -0.500000 3.500000
v 0.000000 0.500000 3.500000
v 0.000000 -0.500000 -3.500000
v 0.000000 0.500000 -3.500000
v 3.500000 -0.500000 3.500000
v 3.500000 0.500000 3.500000
v 3.500000 -0.500000 -3.500000
v 3.500000 0.500000 -3.500000
v 0.000000 -0.500000 -1.540000
v 0.000000 0.500000 -1.540000
v 0.000000 -0.500000 1.540000
v 0.000000 0.500000 1.540000
v 0.490000 0.500000 -0.559999
v 0.490000 -0.500000 -0.559999
v 0.490000 -0.500000 0.560000
v 0.490000 0.500000 0.560000
v 0.000000 0.500000 -2.520000
v 0.000000 -0.500000 -2.520000
v 0.000000 -0.500000 2.520000
v 0.000000 0.500000 2.520000
v -0.875000 0.500000 -0.559999
v -0.875000 0.500000 -1.540000
v -0.875000 -0.500000 -1.540000
v -0.875000 -0.500000 0.560000
v -0.875000 -0.500000 1.540000
v -0.875000 0.500000 1.540000
v -0.875000 -0.500000 -0.559999
v -0.875000 0.500000 0.560000
vt 0.681529 1.000000
vt 0.681529 0.666667
vt 0.726115 0.666667
vt 0.726115 1.000000
vt 0.955414 0.333333
vt 0.636943 0.333333
vt 0.636943 0.000000
vt 0.955414 0.000000
vt 0.318471 0.750000
vt 0.000000 0.750000
vt 0.000000 0.416667
vt 0.318471 0.416667
vt 0.636943 0.666667
vt 0.636943 0.333333
vt 0.955414 0.333333
vt 0.955414 0.666667
vt 0.000000 0.333333
vt 0.000000 0.000000
vt 0.318471 0.000000
vt 0.318471 0.333333
vt 0.273885 0.333333
vt 0.229299 0.333333
vt 0.184713 0.286667
vt 0.133758 0.286667
vt 0.089172 0.333333
vt 0.044586 0.333333
vt 0.318471 0.416667
vt 0.318471 0.083333
vt 0.363057 0.083333
vt 0.407643 0.083333
vt 0.452229 0.130000
vt 0.503185 0.130000
vt 0.547771 0.083333
vt 0.592357 0.083333
vt 0.636943 0.083333
vt 0.636943 0.416667
vt 0.133758 0.416667
vt 0.089172 0.416667
vt 0.770701 1.000000
vt 0.770701 0.666667
vt 0.815287 0.666667
vt 0.815287 1.000000
vt 0.337579 0.750000
vt 0.337579 0.416667
vt 0.388535 0.416667
vt 0.388535 0.750000
vt 0.636943 0.416667
vt 0.636943 0.750000
vt 0.512739 0.750000
vt 0.512739 0.416667
vt 0.636943 1.000000
vt 0.636943 0.666667
vt 0.726115 1.000000
vt 0.726115 0.666667
vt 0.955414 0.333333
vt 0.955414 0.000000
vt 1.000000 0.000000
vt 1.000000 0.333333
vt 0.955414 0.666667
vt 0.955414 0.333333
vt 1.000000 0.333333
vt 1.000000 0.666667
vt 0.894904 0.666667
vt 0.894904 1.000000
vt 0.229299 0.416667
vt 0.184713 0.416667
vt 0.407643 0.000000
vt 0.452229 0.000000
vt 0.503185 0.000000
vt 0.547771 0.000000
vt 0.512739 0.416667
vt 0.512739 0.750000
vt 0.974522 0.666667
vt 0.974522 1.000000
vt 0.894904 1.000000
vt 0.894904 0.666667
vn -1.0000 0.0000 0.0000
vn 0.0000 0.0000 -1.0000
vn 1.0000 0.0000 0.0000
vn 0.0000 0.0000 1.0000
vn 0.0000 -1.0000 0.0000
vn 0.0000 1.0000 0.0000
usemtl Material.004
s off
f 18/1/1 17/2/1 4/3/1 3/4/1
f 3/5/2 4/6/2 8/7/2 7/8/2
f 7/9/3 8/10/3 6/11/3 5/12/3
f 5/13/4 6/14/4 2/15/4 1/16/4
f 3/17/5 7/18/5 5/19/5 1/20/5 19/21/5 11/22/5 15/23/5 14/24/5 9/25/5 18/26/5
f 8/27/6 4/28/6 17/29/6 10/30/6 13/31/6 16/32/6 12/33/6 20/34/6 2/35/6 6/36/6
f 9/25/5 14/24/5 27/37/5 23/38/5
f 19/39/1 20/40/1 12/41/1 11/42/1
f 15/43/1 16/44/1 13/45/1 14/46/1
f 16/47/2 15/48/2 24/49/2 28/50/2
f 9/51/1 10/52/1 17/2/1 18/1/1
f 1/53/1 2/54/1 20/40/1 19/39/1
f 27/55/1 21/56/1 22/57/1 23/58/1
f 25/59/1 26/60/1 28/61/1 24/62/1
f 11/42/4 12/41/4 26/63/4 25/64/4
f 15/23/5 11/22/5 25/65/5 24/66/5
f 13/31/6 10/30/6 22/67/6 21/68/6
f 12/33/6 16/32/6 28/69/6 26/70/6
f 14/46/4 13/45/4 21/71/4 27/72/4
f 10/73/2 9/74/2 23/75/2 22/76/2
o Cube.001_Cube.004
v -0.000001 -0.500000 -3.500000
v -0.000001 0.500000 -3.500000
v 0.000000 -0.500000 3.500000
v 0.000000 0.500000 3.500000
v -3.500000 -0.500000 -3.500000
v -3.500000 0.500000 -3.500000
v -3.500000 -0.500000 3.500000
v -3.500000 0.500000 3.500000
v -0.000000 -0.500000 1.540000
v -0.000000 0.500000 1.540000
v -0.000000 -0.500000 -1.540000
v -0.000000 0.500000 -1.540000
v 0.490000 0.500000 0.559999
v 0.490000 -0.500000 0.559999
v 0.490000 -0.500000 -0.560000
v 0.490000 0.500000 -0.560000
v 0.000000 0.500000 2.520000
v 0.000000 -0.500000 2.520000
v -0.000000 -0.500000 -2.520000
v -0.000000 0.500000 -2.520000
v -0.000000 0.500000 0.559999
v -0.000000 0.500000 1.540000
v -0.000000 -0.500000 1.540000
v -0.000000 -0.500000 -0.560000
v -0.000000 -0.500000 -1.540000
v -0.000000 0.500000 -1.540000
v -0.000000 -0.500000 0.559999
v -0.000000 0.500000 -0.560000
v -0.875001 0.500000 0.559999
v -0.875001 0.500000 1.540000
v -0.875001 -0.500000 1.540000
v -0.875001 -0.500000 -0.560000
v -0.875001 -0.500000 -1.540000
v -0.875001 0.500000 -1.540000
v -0.875001 -0.500000 0.559999
v -0.875001 0.500000 -0.560000
vt 0.699346 0.955414
vt 0.699346 0.636943
vt 0.745098 0.636943
vt 0.745098 0.955414
vt 0.653595 0.318471
vt 0.653595 0.000000
vt 0.980392 0.000000
vt 0.980392 0.318471
vt 0.326797 0.681529
vt 0.000000 0.681529
vt 0.000000 0.363057
vt 0.326797 0.363057
vt 0.653595 0.636943
vt 0.653595 0.318471
vt 0.980392 0.318471
vt 0.980392 0.636943
vt 0.790850 0.955414
vt 0.790850 0.636943
vt 0.836601 0.636943
vt 0.836601 0.955414
vt 0.346405 0.681529
vt 0.346405 0.363057
vt 0.398693 0.363057
vt 0.398693 0.681529
vt 0.526144 0.363057
vt 0.526144 0.681529
vt 0.480392 0.681529
vt 0.480392 0.363057
vt 0.653595 0.955414
vt 0.653595 0.636943
vt 0.745098 0.955414
vt 0.745098 0.636943
vt 0.571895 0.681529
vt 0.571895 0.363057
vt 0.653594 0.363057
vt 0.653595 0.681529
vt 0.398693 0.681529
vt 0.398693 0.363057
vt 0.346405 0.363057
vt 0.346405 0.681529
vt 0.346405 0.681529
vt 0.346405 0.363057
vt 0.526144 0.681529
vt 0.526144 0.363057
vt 0.653595 0.955414
vt 0.653595 0.636943
vt 0.000000 1.000000
vt 0.000000 0.681529
vt 0.045752 0.681529
vt 0.045752 1.000000
vt 0.045752 1.000000
vt 0.045752 0.681529
vt 0.091503 0.681529
vt 0.091503 1.000000
vt 0.836601 0.955414
vt 0.836601 0.636943
vt 0.918301 0.636943
vt 0.918301 0.955414
vt 1.000000 0.636943
vt 1.000000 0.955414
vt 0.918301 0.955414
vt 0.918301 0.636943
vt 0.326797 0.000000
vt 0.418301 0.238853
vt 0.418301 0.318471
vt 0.372549 0.318471
vt 0.326797 0.318471
vt 0.516340 0.363057
vt 0.464052 0.363057
vt 0.464052 0.238853
vt 0.516340 0.238853
vt 0.607843 0.318471
vt 0.562091 0.318471
vt 0.562091 0.238853
vt 0.653595 0.000000
vt 0.653595 0.318471
vt 0.281046 0.318471
vt 0.235294 0.318471
vt 0.235294 0.238853
vt 0.326797 0.000000
vt 0.326797 0.318471
vt 0.000000 0.000000
vt 0.091503 0.238853
vt 0.091503 0.318471
vt 0.045752 0.318471
vt 0.000000 0.318471
vt 0.189542 0.363057
vt 0.137255 0.363057
vt 0.137255 0.238853
vt 0.189542 0.238853
vn 1.0000 0.0000 -0.0000
vn 0.0000 0.0000 1.0000
vn -1.0000 0.0000 0.0000
vn -0.0000 0.0000 -1.0000
vn 0.0000 1.0000 0.0000
vn 0.0000 -1.0000 0.0000
usemtl Material.003
s off
f 46/77/7 45/78/7 32/79/7 31/80/7
f 31/81/8 32/82/8 36/83/8 35/84/8
f 35/85/9 36/86/9 34/87/9 33/88/9
f 33/89/10 34/90/10 30/91/10 29/92/10
f 47/93/7 48/94/7 40/95/7 39/96/7
f 43/97/7 44/98/7 41/99/7 42/100/7
f 44/101/10 43/102/10 52/103/10 56/104/10
f 37/105/7 38/106/7 45/78/7 46/77/7
f 29/107/7 30/108/7 48/94/7 47/93/7
f 55/109/8 49/110/8 57/111/8 63/112/8
f 56/104/10 52/103/10 60/113/10 64/114/10
f 39/115/9 40/116/9 54/117/9 53/118/9
f 42/119/8 41/120/8 49/110/8 55/109/8
f 38/106/7 37/105/7 51/121/7 50/122/7
f 63/123/7 57/124/7 58/125/7 59/126/7
f 61/127/7 62/128/7 64/129/7 60/130/7
f 53/131/8 54/132/8 62/133/8 61/134/8
f 50/135/10 51/136/10 59/137/10 58/138/10
f 34/139/11 62/140/11 54/141/11 48/142/11 30/143/11
f 41/144/11 44/145/11 64/146/11 57/147/11
f 45/148/11 50/149/11 58/150/11 36/151/11 32/152/11
f 34/139/11 36/151/11 58/150/11 57/147/11 64/146/11 62/140/11
f 47/153/12 53/154/12 61/155/12 33/156/12 29/157/12
f 35/158/12 59/159/12 51/160/12 46/161/12 31/162/12
f 43/163/12 42/164/12 63/165/12 60/166/12
f 33/156/12 61/155/12 60/166/12 63/165/12 59/159/12 35/158/12
